<svg width="199" height="48" fill="currentColor" xmlns="http://www.w3.org/2000/svg" viewBox="10 0 199 48">
  <path fill-rule="evenodd" clip-rule="evenodd" d="M46.944 12.256c-.32-.17-.63-.256-.928-.256-.555 0-1.035.192-1.44.576A1.878 1.878 0 0 0 44 13.952V32.48c0 .555.17 1.024.512 1.408.341.363.779.544 1.312.544.555 0 1.003-.181 1.344-.544.341-.384.512-.853.512-1.408V19.3l5.28 8.348c.192.235.427.437.704.608.299.17.587.245.864.224.299.021.587-.053.864-.224a2.61 2.61 0 0 0 .736-.608l5.28-8.05V32.48c0 .555.181 1.024.544 1.408.384.363.875.544 1.472.544s1.077-.181 1.44-.544c.363-.384.544-.853.544-1.408V13.952c0-.576-.203-1.045-.608-1.408-.405-.363-.864-.544-1.376-.544-.64 0-1.163.288-1.568.864l-7.177 10.723-6.967-10.723c-.17-.256-.427-.459-.768-.608Zm36.459 18.272c.79-1.344 1.184-2.89 1.184-4.64 0-1.75-.395-3.285-1.184-4.608a8.202 8.202 0 0 0-3.136-3.136c-1.302-.768-2.763-1.152-4.384-1.152-1.622 0-3.094.384-4.416 1.152-1.302.747-2.347 1.792-3.136 3.136-.768 1.323-1.152 2.859-1.152 4.608 0 1.75.384 3.296 1.152 4.64a8.577 8.577 0 0 0 3.136 3.104c1.322.747 2.794 1.12 4.416 1.12 1.621 0 3.082-.373 4.384-1.12a8.267 8.267 0 0 0 3.136-3.104Zm-3.328-7.456c.448.79.672 1.728.672 2.816 0 1.067-.224 2.005-.672 2.816a4.756 4.756 0 0 1-1.76 1.856 4.535 4.535 0 0 1-2.432.672 4.699 4.699 0 0 1-2.464-.672c-.726-.448-1.312-1.067-1.76-1.856-.427-.81-.64-1.75-.64-2.816 0-1.088.213-2.027.64-2.816.448-.81 1.034-1.44 1.76-1.888a4.699 4.699 0 0 1 2.464-.672c.896 0 1.706.224 2.432.672a4.702 4.702 0 0 1 1.76 1.888Zm6.496 10.816c.363.363.822.544 1.377.544.554 0 1.013-.181 1.376-.544.362-.384.544-.853.544-1.408v-7.584c0-.768.096-1.43.288-1.984.213-.576.48-1.056.8-1.44.34-.384.703-.661 1.087-.832.406-.192.8-.288 1.184-.288.427 0 .8.075 1.12.224.342.15.715.224 1.12.224.427 0 .822-.15 1.184-.448.363-.32.544-.832.544-1.536 0-.49-.223-.917-.671-1.28-.427-.363-.96-.544-1.6-.544-.534 0-1.067.064-1.6.192a5.432 5.432 0 0 0-1.504.608c-.47.256-.896.587-1.28.992-.256.27-.48.574-.672.908v-.428c0-.555-.182-1.013-.544-1.376-.363-.384-.822-.576-1.376-.576-.555 0-1.014.192-1.376.576-.363.363-.544.821-.544 1.376V32.48c0 .555.18 1.024.543 1.408ZM113 17.536c-.363-.363-.822-.544-1.376-.544-.555 0-1.014.192-1.376.576-.363.363-.545.821-.545 1.376v.052a6.915 6.915 0 0 0-.64-.532c-.554-.427-1.215-.779-1.983-1.056s-1.611-.416-2.528-.416c-1.43 0-2.731.384-3.904 1.152-1.174.747-2.112 1.792-2.816 3.136-.683 1.323-1.024 2.859-1.024 4.608 0 1.728.34 3.264 1.023 4.608.704 1.323 1.654 2.368 2.849 3.136 1.194.747 2.528 1.12 4 1.12.81 0 1.557-.128 2.24-.384a7.761 7.761 0 0 0 1.823-.992c.379-.284.699-.568.961-.851.009.535.191.99.544 1.363.362.363.821.544 1.376.544.554 0 1.013-.181 1.376-.544.362-.384.544-.853.544-1.408V18.944c0-.576-.182-1.045-.544-1.408Zm-5.376 12.992c-.704.47-1.526.704-2.464.704-.918 0-1.728-.235-2.432-.704-.704-.47-1.259-1.11-1.664-1.92-.384-.81-.576-1.717-.576-2.72 0-1.024.192-1.941.576-2.752.405-.81.96-1.45 1.664-1.92s1.514-.704 2.432-.704c.938 0 1.76.235 2.464.704.703.47 1.248 1.11 1.632 1.92.405.81.608 1.728.608 2.752 0 1.003-.203 1.91-.608 2.72-.384.81-.929 1.45-1.632 1.92Zm12.221 4.448a7.885 7.885 0 0 0 3.392.736c1.43 0 2.72-.341 3.872-1.024A7.904 7.904 0 0 0 129.861 32a6.77 6.77 0 0 0 1.024-3.616v-13.44c0-.555-.181-1.013-.544-1.376-.362-.384-.842-.576-1.44-.576-.533 0-1.002.192-1.408.576a1.767 1.767 0 0 0-.608 1.376v13.44a3.14 3.14 0 0 1-.512 1.728c-.341.533-.789.96-1.344 1.28-.554.32-1.152.48-1.792.48a4.345 4.345 0 0 1-1.44-.224c-.405-.17-.821-.448-1.248-.832a4.463 4.463 0 0 0-.864-.672 1.692 1.692 0 0 0-.928-.288c-.405 0-.821.181-1.248.544-.405.363-.608.81-.608 1.344 0 .363.128.736.384 1.12a6.517 6.517 0 0 0 2.56 2.112Zm27.673-16.128c-.363-.384-.822-.576-1.376-.576-.555 0-1.014.192-1.376.576-.363.363-.544.821-.544 1.376v8.128c0 1.301-.288 2.272-.864 2.912-.576.619-1.451.928-2.624.928-1.152 0-2.016-.31-2.592-.928-.576-.64-.864-1.61-.864-2.912v-8.128c0-.555-.182-1.013-.544-1.376-.363-.384-.822-.576-1.376-.576-.555 0-1.014.192-1.376.576-.363.363-.544.821-.544 1.376v8.128c0 2.261.618 4.053 1.856 5.376 1.258 1.323 3.072 1.984 5.44 1.984 2.368 0 4.181-.661 5.44-1.984 1.258-1.323 1.888-3.115 1.888-5.376v-8.128c0-.555-.182-1.013-.544-1.376Zm15.517.096c-.811-.661-2.006-.992-3.584-.992-.726 0-1.398.117-2.016.352a6.136 6.136 0 0 0-1.664.864 7.548 7.548 0 0 0-1.28 1.184 7.446 7.446 0 0 0-.352.421v-.549c0-.555-.182-1.013-.544-1.376-.363-.384-.822-.576-1.376-.576-.555 0-1.014.192-1.376.576-.363.363-.544.821-.544 1.376V33.44c0 .555.181 1.024.544 1.408.362.363.821.544 1.376.544.554 0 1.013-.181 1.376-.544.362-.384.544-.853.544-1.408v-8.192c0-.704.149-1.333.448-1.888a3.618 3.618 0 0 1 1.344-1.376c.597-.341 1.322-.512 2.176-.512.874 0 1.546.17 2.016.512.469.341.789.8.96 1.376.192.555.288 1.184.288 1.888v8.192c0 .555.181 1.024.544 1.408.362.363.821.544 1.376.544.554 0 1.013-.181 1.376-.544.362-.384.544-.853.544-1.408v-8.192c0-1.344-.16-2.56-.48-3.648-.299-1.11-.864-1.995-1.696-2.656Zm6.07-.352h-1.472c-.512 0-.938.17-1.28.512-.341.32-.512.725-.512 1.216 0 .512.171.939.512 1.28.342.341.768.512 1.28.512h1.472v8.832c0 1.045.16 1.867.48 2.464.32.597.715 1.045 1.184 1.344a4.577 4.577 0 0 0 1.536.544 13.24 13.24 0 0 0 1.504.096 3.97 3.97 0 0 0 2.08-.576c.662-.384.992-.875.992-1.472 0-.49-.128-.875-.384-1.152-.234-.277-.501-.416-.8-.416-.277 0-.522.053-.736.16a1.879 1.879 0 0 1-.704.128c-.234 0-.458-.043-.672-.128a1.12 1.12 0 0 1-.48-.416c-.106-.192-.16-.437-.16-.736v-8.672h2.272c.512 0 .939-.16 1.28-.48.342-.341.512-.757.512-1.248 0-.512-.17-.939-.512-1.28-.341-.341-.768-.512-1.28-.512h-2.272v-2.048c0-.555-.181-1.013-.544-1.376-.341-.384-.789-.576-1.344-.576-.554 0-1.024.192-1.408.576-.362.363-.544.821-.544 1.376v2.048Zm24.778 12.896c.789-1.344 1.184-2.89 1.184-4.64 0-1.75-.395-3.285-1.184-4.608a8.205 8.205 0 0 0-3.136-3.136c-1.302-.768-2.763-1.152-4.384-1.152-1.622 0-3.094.384-4.416 1.152-1.302.747-2.347 1.792-3.136 3.136-.768 1.323-1.152 2.859-1.152 4.608 0 1.75.384 3.296 1.152 4.64a8.57 8.57 0 0 0 3.136 3.104c1.322.747 2.794 1.12 4.416 1.12 1.621 0 3.082-.373 4.384-1.12a8.272 8.272 0 0 0 3.136-3.104Zm-3.328-7.456c.448.79.672 1.728.672 2.816 0 1.067-.224 2.005-.672 2.816a4.764 4.764 0 0 1-1.76 1.856 4.537 4.537 0 0 1-2.432.672 4.698 4.698 0 0 1-2.464-.672c-.726-.448-1.312-1.067-1.76-1.856-.427-.81-.64-1.75-.64-2.816 0-1.088.213-2.027.64-2.816.448-.81 1.034-1.44 1.76-1.888a4.698 4.698 0 0 1 2.464-.672c.896 0 1.706.224 2.432.672a4.71 4.71 0 0 1 1.76 1.888Z" />
  <path  fill-opacity=".01" d="M0 0h48v48H0z"/>
  <circle cx="20.613" cy="3.534"  fill-opacity=".01" r="3.534"/>
  <circle cx="20.613" cy="44.466" r="3.534"  fill-opacity=".01"/>
  <path d="M29.564 25.62a3.534 3.534 0 1 0 0-7.068 3.534 3.534 0 0 0 0 7.068Z" />
  <path fill-rule="evenodd" clip-rule="evenodd" d="M22.593 20.918c.094-.567-.627-1.221-1.184-1.083a6.479 6.479 0 1 1 4.874-5.547c-.065.571.676 1.2 1.226 1.034a7.067 7.067 0 1 1 1.022 13.757c-.558-.082-1.15.603-.972 1.139a8.245 8.245 0 1 1-5.924-5.431c.55.13 1.181-.518 1.051-1.068a7.086 7.086 0 0 1-.093-2.801Zm-1.607-2.788a4.722 4.722 0 1 1 3.552-4.041c-.124 1.085.496 1.913.994 2.334.497.42 1.427.9 2.487.58a5.311 5.311 0 1 1 .767 10.339c-1.065-.157-1.906.414-2.35.932-.443.517-.89 1.45-.544 2.496a6.49 6.49 0 1 1-4.661-4.274c1.071.253 1.963-.273 2.44-.76.477-.487.972-1.374.724-2.421a5.33 5.33 0 0 1-.07-2.109c.182-1.093-.416-1.953-.896-2.391-.482-.44-1.383-.947-2.442-.685Z" />
</svg>